<?xml version="1.0" encoding="UTF-8" standalone="no"?>
<!-- Created with Inkscape (http://www.inkscape.org/) -->
<svg
   xmlns:dc="http://purl.org/dc/elements/1.1/"
   xmlns:cc="http://web.resource.org/cc/"
   xmlns:rdf="http://www.w3.org/1999/02/22-rdf-syntax-ns#"
   xmlns:svg="http://www.w3.org/2000/svg"
   xmlns="http://www.w3.org/2000/svg"
   xmlns:sodipodi="http://inkscape.sourceforge.net/DTD/sodipodi-0.dtd"
   xmlns:inkscape="http://www.inkscape.org/namespaces/inkscape"
   width="905"
   height="610"
   id="svg2"
   sodipodi:version="0.32"
   inkscape:version="0.43"
   version="1.0"
   sodipodi:docbase="C:\Documents and Settings\Susan and Tristan\Desktop"
   sodipodi:docname="Torres Strait Islanders Flag.svg">
  <defs
     id="defs4" />
  <sodipodi:namedview
     id="base"
     pagecolor="#ffffff"
     bordercolor="#666666"
     borderopacity="1.0"
     inkscape:pageopacity="0.0"
     inkscape:pageshadow="2"
     inkscape:zoom="0.61147542"
     inkscape:cx="452.50002"
     inkscape:cy="305.00005"
     inkscape:document-units="px"
     inkscape:current-layer="layer1"
     inkscape:window-width="756"
     inkscape:window-height="540"
     inkscape:window-x="132"
     inkscape:window-y="174" />
  <metadata
     id="metadata7">
    <rdf:RDF>
      <cc:Work
         rdf:about="">
        <dc:format>image/svg+xml</dc:format>
        <dc:type
           rdf:resource="http://purl.org/dc/dcmitype/StillImage" />
      </cc:Work>
    </rdf:RDF>
  </metadata>
  <g
     inkscape:label="Layer 1"
     inkscape:groupmode="layer"
     id="layer1">
    <path
       id="path1366"
       d="M 292.33295,455.7333 C 293.565,454.6115 306.16556,444.28097 320.33418,432.77658 C 334.50281,421.27215 346.93785,411.14272 347.96762,410.26668 C 348.99737,409.39066 342.65995,386.75557 333.88448,359.96653 C 316.78148,307.75596 313.4692,289.3913 316.2047,261.94222 C 318.2959,240.95813 328.64939,220.69416 345.04322,205.49908 C 363.8264,188.08941 395.21198,170.36719 427.04074,159.19827 L 438.54311,155.16202 L 444.70108,186.34936 C 448.08797,203.50241 451.50927,217.53671 452.30395,217.53671 C 453.09865,217.53671 456.62317,203.50759 460.13625,186.36087 L 466.52365,155.185 L 477.99267,159.20977 C 509.78854,170.36772 541.18221,188.09733 559.95683,205.49908 C 576.35066,220.69416 586.70415,240.95813 588.79535,261.94222 C 591.53085,289.3913 588.21857,307.75596 571.11557,359.96653 C 562.3401,386.75557 556.00268,409.39066 557.03243,410.26668 C 558.0622,411.14272 570.49724,421.27215 584.66587,432.77658 C 598.83449,444.28097 611.43505,454.6115 612.6671,455.7333 C 614.8549,457.72528 609.44517,455.83426 546.02416,432.43764 L 515.2228,421.07471 L 515.2228,355.07671 C 515.2228,280.68842 515.5643,282.44984 498.17,267.12135 C 473.74158,245.59413 431.25847,245.59413 406.83005,267.12135 C 389.43575,282.44984 389.77725,280.68842 389.77725,355.07671 L 389.77725,421.07471 L 358.97589,432.43764 C 295.55488,455.83426 290.14515,457.72528 292.33295,455.7333 z M 423.50181,350.60973 C 427.13028,339.86306 430.06304,329.99815 430.01904,328.6877 C 429.97502,327.37728 421.95558,320.75454 412.19802,313.97053 L 394.45704,301.63598 L 417.18083,300.51465 L 439.90464,299.39333 L 446.71685,278.51783 L 453.52908,257.64233 L 460.4757,278.51783 L 467.42231,299.39333 L 489.62536,300.51465 L 511.82842,301.63598 L 495.04479,313.73611 C 485.81379,320.39119 477.89952,326.13559 477.45751,326.50148 C 477.01547,326.86735 479.77628,336.4874 483.5926,347.87936 C 487.40892,359.27131 490.2907,368.82496 489.9965,369.10967 C 489.70233,369.39439 481.45263,363.80271 471.6638,356.68372 L 453.86595,343.7401 L 438.06232,355.36018 C 429.37033,361.75123 421.05401,367.69325 419.58164,368.5647 C 418.1021,369.44037 419.85573,361.40853 423.50181,350.60973 z "
       style="fill:#fdfdfe" />
    <path
       id="path1362"
       d=""
       style="fill:#7692fe" />
    <path
       id="path1360"
       d=""
       style="fill:#5778fe" />
    <path
       id="path1356"
       d="M 2.7e-005,304.99516 L 2.7e-005,136.79663 L 452.50002,136.79663 L 905.00002,136.79663 L 905.00002,304.99516 L 905.00002,473.19368 L 452.50002,473.19368 L 2.7e-005,473.19368 L 2.7e-005,304.99516 z M 340.9624,440.51883 L 389.59186,422.73412 L 390.24458,355.25819 L 390.8973,287.78228 L 397.46039,278.30575 C 410.424,259.58739 438.98159,249.16583 465.03098,253.64708 C 489.29184,257.82067 509.74336,273.81355 514.20407,292.09994 L 515.7085,298.26721 L 492.12933,298.26721 L 468.55018,298.26721 L 461.39463,276.76436 C 457.45907,264.93778 453.53585,256.10736 452.67637,257.1412 C 451.81686,258.17503 448.22213,268.32359 444.68808,279.69355 L 438.26252,300.36622 L 414.90283,300.99869 L 391.54317,301.63119 L 410.6123,314.72412 L 429.68144,327.81703 L 423.16994,347.10254 C 414.6831,372.23848 414.75817,374.21973 423.93876,367.39414 C 427.94294,364.41712 436.32947,358.28989 442.57549,353.77807 L 453.93192,345.57475 L 472.62749,358.92732 C 482.91006,366.27125 491.65496,371.94763 492.0606,371.54153 C 492.46624,371.13544 489.77933,361.8622 486.08966,350.93434 C 482.40002,340.00651 479.41719,329.99336 479.46116,328.68291 C 479.50514,327.37249 487.56949,320.51712 497.38195,313.44881 L 515.2228,300.59733 L 515.23165,361.66572 L 515.24049,422.73412 L 565.90853,441.33477 C 593.77592,451.56514 616.93467,459.57691 617.37239,459.1387 C 617.81008,458.70048 604.58624,447.30261 587.98607,433.81009 C 571.38589,420.31758 557.79957,408.37255 557.79429,407.26556 C 557.789,406.15858 564.94522,383.45178 573.69702,356.806 C 587.9542,313.39849 589.7327,306.01765 590.79516,285.84878 C 593.78513,229.08958 567.66399,195.85282 495.52796,164.62992 C 485.88066,160.45425 474.97404,156.43441 471.29107,155.69699 L 464.59475,154.3562 L 459.25641,182.58009 C 456.32033,198.10322 453.27996,210.80398 452.50002,210.80398 C 451.72009,210.80398 448.67972,198.10322 445.74364,182.58009 L 440.4053,154.3562 L 433.70898,155.69699 C 430.02601,156.43441 419.11939,160.45425 409.47209,164.62992 C 337.33606,195.85282 311.21492,229.08958 314.20489,285.84878 C 315.2686,306.04173 317.04397,313.39288 331.4502,357.25531 C 340.28296,384.14822 347.19149,407.02239 346.80252,408.08679 C 346.41357,409.1512 333.49477,420.29814 318.09408,432.85775 C 302.6934,445.41735 289.0848,456.75192 287.85275,458.04568 C 284.97648,461.06596 282.95889,461.73178 340.9624,440.51883 z "
       style="fill:#0032fe" />
    <path
       id="path1354"
       d="M 2.7e-005,556.17641 L 2.7e-005,502.35288 L 452.50002,502.35288 L 905.00002,502.35288 L 905.00002,556.17641 L 905.00002,609.99994 L 452.50002,609.99994 L 2.7e-005,609.99994 L 2.7e-005,556.17641 z M 2.7e-005,53.823482 L 2.7e-005,-4.610954e-005 L 452.50002,-4.610954e-005 L 905.00002,-4.610954e-005 L 905.00002,53.823482 L 905.00002,107.64701 L 452.50002,107.64701 L 2.7e-005,107.64701 L 2.7e-005,53.823482 z "
       style="fill:#008700" />
    <path
       id="path1352"
       d="M 2.7e-005,487.77568 L 2.7e-005,473.19847 L 452.50002,473.19847 L 905.00002,473.19847 L 905.00002,487.77568 L 905.00002,502.35288 L 452.50002,502.35288 L 2.7e-005,502.35288 L 2.7e-005,487.77568 z M 2.7e-005,122.22422 L 2.7e-005,107.64701 L 452.50002,107.64701 L 905.00002,107.64701 L 905.00002,122.22422 L 905.00002,136.80142 L 452.50002,136.80142 L 2.7e-005,136.80142 L 2.7e-005,122.22422 z "
       style="fill:#000000" />
  </g>
</svg>
